<?xml version="1.0" encoding="UTF-8" standalone="no"?>
<!-- Created with Inkscape (http://www.inkscape.org/) -->

<svg
   width="210mm"
   height="210mm"
   viewBox="0 0 210 210"
   version="1.1"
   id="svg1"
   xml:space="preserve"
   inkscape:export-filename="bitmap-without-typo-nb.png"
   inkscape:export-xdpi="96"
   inkscape:export-ydpi="96"
   inkscape:version="1.4.3 (0d15f75, 2025-12-25)"
   sodipodi:docname="favicon.svg"
   xmlns:inkscape="http://www.inkscape.org/namespaces/inkscape"
   xmlns:sodipodi="http://sodipodi.sourceforge.net/DTD/sodipodi-0.dtd"
   xmlns="http://www.w3.org/2000/svg"
   xmlns:svg="http://www.w3.org/2000/svg"><sodipodi:namedview
     id="namedview1"
     pagecolor="#0d0d0d"
     bordercolor="#000000"
     borderopacity="0.25"
     inkscape:showpageshadow="2"
     inkscape:pageopacity="0.0"
     inkscape:pagecheckerboard="0"
     inkscape:deskcolor="#d1d1d1"
     inkscape:document-units="mm"
     showguides="false"
     inkscape:zoom="0.35634119"
     inkscape:cx="649.65827"
     inkscape:cy="491.10236"
     inkscape:window-width="1920"
     inkscape:window-height="1011"
     inkscape:window-x="0"
     inkscape:window-y="0"
     inkscape:window-maximized="1"
     inkscape:current-layer="layer3" /><defs
     id="defs1"><linearGradient
       id="swatch164"
       inkscape:swatch="solid"><stop
         style="stop-color:#9da14b;stop-opacity:1;"
         offset="0"
         id="stop164" /></linearGradient><inkscape:path-effect
       effect="fillet_chamfer"
       id="path-effect29"
       is_visible="true"
       lpeversion="1"
       nodesatellites_param="F,0,0,1,0,0,0,1 @ F,0,0,1,0,16.214224,0,1 @ F,0,0,1,0,0,0,1"
       radius="0"
       unit="px"
       method="auto"
       mode="F"
       chamfer_steps="1"
       flexible="false"
       use_knot_distance="true"
       apply_no_radius="true"
       apply_with_radius="true"
       only_selected="false"
       hide_knots="false" /><inkscape:path-effect
       effect="fillet_chamfer"
       id="path-effect7"
       is_visible="true"
       lpeversion="1"
       nodesatellites_param="F,0,0,1,0,0,0,1 @ F,0,0,1,0,18.33975,0,1 @ F,0,0,1,0,17.44875,0,1 @ F,0,0,1,0,0,0,1"
       radius="0"
       unit="px"
       method="auto"
       mode="F"
       chamfer_steps="1"
       flexible="false"
       use_knot_distance="true"
       apply_no_radius="true"
       apply_with_radius="true"
       only_selected="false"
       hide_knots="false" /><inkscape:path-effect
       effect="fillet_chamfer"
       id="path-effect5"
       is_visible="true"
       lpeversion="1"
       nodesatellites_param="F,0,0,1,0,0,0,1 @ F,0,0,1,0,27.111708,0,1 @ F,0,0,1,0,0,0,1"
       radius="0"
       unit="px"
       method="auto"
       mode="F"
       chamfer_steps="1"
       flexible="false"
       use_knot_distance="true"
       apply_no_radius="true"
       apply_with_radius="true"
       only_selected="false"
       hide_knots="false" /><inkscape:path-effect
       effect="fillet_chamfer"
       id="path-effect4"
       is_visible="true"
       lpeversion="1"
       nodesatellites_param="F,0,0,1,0,0,0,1 @ F,0,0,1,0,10.591414,0,1 @ F,0,0,1,0,11.723555,0,1 @ F,0,0,1,0,0,0,1"
       radius="0"
       unit="px"
       method="auto"
       mode="F"
       chamfer_steps="1"
       flexible="false"
       use_knot_distance="true"
       apply_no_radius="true"
       apply_with_radius="true"
       only_selected="false"
       hide_knots="false" /><inkscape:path-effect
       effect="fillet_chamfer"
       id="path-effect2"
       is_visible="true"
       lpeversion="1"
       nodesatellites_param="F,0,0,1,0,0,0,1 @ F,0,0,1,0,32.287318,0,1 @ F,0,0,1,0,6.75662,0,1 @ F,0,0,1,0,0,0,1 @ F,0,0,1,0,0,0,1"
       radius="0"
       unit="px"
       method="auto"
       mode="F"
       chamfer_steps="1"
       flexible="false"
       use_knot_distance="true"
       apply_no_radius="true"
       apply_with_radius="true"
       only_selected="false"
       hide_knots="false" /><inkscape:path-effect
       effect="fillet_chamfer"
       id="path-effect2-5"
       is_visible="true"
       lpeversion="1"
       nodesatellites_param="F,0,0,1,0,0,0,1 @ F,0,0,1,0,32.287318,0,1 @ F,0,0,1,0,6.75662,0,1 @ F,0,0,1,0,0,0,1 @ F,0,0,1,0,0,0,1"
       radius="0"
       unit="px"
       method="auto"
       mode="F"
       chamfer_steps="1"
       flexible="false"
       use_knot_distance="true"
       apply_no_radius="true"
       apply_with_radius="true"
       only_selected="false"
       hide_knots="false" /><inkscape:path-effect
       effect="fillet_chamfer"
       id="path-effect2-7"
       is_visible="true"
       lpeversion="1"
       nodesatellites_param="F,0,0,1,0,0,0,1 @ F,0,0,1,0,32.287318,0,1 @ F,0,0,1,0,6.75662,0,1 @ F,0,0,1,0,0,0,1 @ F,0,0,1,0,0,0,1"
       radius="0"
       unit="px"
       method="auto"
       mode="F"
       chamfer_steps="1"
       flexible="false"
       use_knot_distance="true"
       apply_no_radius="true"
       apply_with_radius="true"
       only_selected="false"
       hide_knots="false" /><inkscape:path-effect
       effect="fillet_chamfer"
       id="path-effect5-0"
       is_visible="true"
       lpeversion="1"
       nodesatellites_param="F,0,0,1,0,0,0,1 @ F,0,0,1,0,27.111708,0,1 @ F,0,0,1,0,0,0,1"
       radius="0"
       unit="px"
       method="auto"
       mode="F"
       chamfer_steps="1"
       flexible="false"
       use_knot_distance="true"
       apply_no_radius="true"
       apply_with_radius="true"
       only_selected="false"
       hide_knots="false" /><inkscape:path-effect
       effect="fillet_chamfer"
       id="path-effect7-9"
       is_visible="true"
       lpeversion="1"
       nodesatellites_param="F,0,0,1,0,0,0,1 @ F,0,0,1,0,18.33975,0,1 @ F,0,0,1,0,17.44875,0,1 @ F,0,0,1,0,0,0,1"
       radius="0"
       unit="px"
       method="auto"
       mode="F"
       chamfer_steps="1"
       flexible="false"
       use_knot_distance="true"
       apply_no_radius="true"
       apply_with_radius="true"
       only_selected="false"
       hide_knots="false" /><filter
       inkscape:label="Burnt edges"
       inkscape:menu="Textures"
       inkscape:menu-tooltip="Torn edges with a dark inner blur"
       height="1.2652784"
       y="-0.1326392"
       width="1.3305055"
       x="-0.16525273"
       id="filter148"><feTurbulence
         baseFrequency="2.7290000000000001"
         numOctaves="8"
         type="fractalNoise"
         id="feTurbulence146" /><feDisplacementMap
         scale="35"
         result="result5"
         xChannelSelector="R"
         in="SourceGraphic"
         yChannelSelector="G"
         id="feDisplacementMap146" /><feComposite
         in="SourceGraphic"
         operator="in"
         result="fbSourceGraphic"
         id="feComposite146" /><feColorMatrix
         result="fbSourceGraphicAlpha"
         in="fbSourceGraphic"
         values="0 0 0 -1 0 0 0 0 -1 0 0 0 0 -1 0 0 0 0 1 0"
         id="feColorMatrix146" /><feGaussianBlur
         result="result6"
         stdDeviation="8"
         in="fbSourceGraphic"
         id="feGaussianBlur146" /><feComposite
         in2="result6"
         operator="atop"
         in="fbSourceGraphic"
         result="result8"
         id="feComposite147" /><feComposite
         in="result8"
         in2="fbSourceGraphicAlpha"
         operator="atop"
         result="result9"
         id="feComposite148" /></filter><filter
       inkscape:label="Burnt edges"
       inkscape:menu="Textures"
       inkscape:menu-tooltip="Torn edges with a dark inner blur"
       height="1.2652784"
       y="-0.1326392"
       width="1.3305055"
       x="-0.16525273"
       id="filter222"><feTurbulence
         baseFrequency="1.1479393310546875"
         numOctaves="10"
         type="fractalNoise"
         id="feTurbulence220" /><feDisplacementMap
         scale="35"
         result="result5"
         xChannelSelector="R"
         in="SourceGraphic"
         yChannelSelector="G"
         id="feDisplacementMap220" /><feComposite
         in="SourceGraphic"
         operator="in"
         result="fbSourceGraphic"
         id="feComposite220" /><feColorMatrix
         result="fbSourceGraphicAlpha"
         in="fbSourceGraphic"
         values="0 0 0 -1 0 0 0 0 -1 0 0 0 0 -1 0 0 0 0 1 0"
         id="feColorMatrix220" /><feGaussianBlur
         result="result6"
         stdDeviation="8"
         in="fbSourceGraphic"
         id="feGaussianBlur220" /><feComposite
         in2="result6"
         operator="atop"
         in="fbSourceGraphic"
         result="result8"
         id="feComposite221" /><feComposite
         in="result8"
         in2="fbSourceGraphicAlpha"
         operator="atop"
         result="result9"
         id="feComposite222" /></filter><filter
       style="color-interpolation-filters:sRGB"
       id="filter223"
       inkscape:label="filter3" /></defs><g
     inkscape:groupmode="layer"
     id="layer6"
     inkscape:label="fondo"
     style="display:none" /><g
     inkscape:groupmode="layer"
     id="layer3"
     inkscape:label="logo 1"
     style="display:inline"><g
       id="g116"
       style="fill:#eb0102;fill-opacity:1"
       transform="matrix(1.0281946,0,0,1.0281946,-2.9604865,7.4373412)"><path
         d="m 107.56503,67.052707 -0.96815,0.966792 -3.98403,3.98538 -0.17798,0.176189 v 26.013806 h 0.0144 v 20.441086 4.76609 10.58843 21.1346 c -5.1e-4,-2e-5 -8.7e-4,2e-5 -0.001,0 v 12.13906 l 5.11488,-5.11487 v -8.78518 h 0.002 v -19.9323 h -0.0121 v -1.41805 h 0.0121 v -11.72061 -5.65334 -12.10446 h -0.0121 v -4.340004 h 0.0121 z"
         style="baseline-shift:baseline;display:inline;overflow:visible;fill:#eb0102;fill-opacity:1;stroke:none;stroke-width:0.173952;stroke-dasharray:none;stroke-opacity:1;enable-background:accumulate;stop-color:#000000"
         id="path25"
         sodipodi:nodetypes="cccccccccccccccccccccccccc" /><g
         id="g41"
         transform="translate(0.043499,-2.1166667)"
         style="fill:#eb0102;fill-opacity:1"><path
           d="m 74.94293,75.957121 c -5.378529,0 -9.316515,3.712609 -10.475847,8.039302 -1.159332,4.326678 0.393939,9.510503 5.051888,12.199772 l 13.269475,7.660515 c 2.680863,1.5478 4.3248,4.39714 4.3248,7.49308 v 17.19689 L 69.011509,118.09563 v -4.24418 l -5.115967,-7.11068 v 9.36997 4.93924 l 4.277258,2.46961 24.059514,13.89114 v -26.06094 c 0,-4.91562 -2.628288,-9.46599 -6.885368,-11.923818 L 72.078505,91.765975 c -2.706638,-1.562682 -3.306663,-4.063698 -2.668571,-6.445085 0.63811,-2.381466 2.407524,-4.246252 5.532996,-4.246252 h 9.898104 5.653401 1.784904 v -1.785421 -3.332096 h -3.439066 z"
           style="baseline-shift:baseline;display:inline;overflow:visible;fill:#eb0102;fill-opacity:1;stroke:#eb0102;stroke-width:0.174;stroke-dasharray:none;stroke-opacity:1;enable-background:accumulate;stop-color:#000000"
           id="path35" /><g
           id="g40"
           style="fill:#eb0102;fill-opacity:1"><path
             d="m 140.03661,104.15333 -2.95175,4.18786 c 2.4015,2.20772 3.90157,5.37766 3.90157,8.91987 v 3.73982 c 0,5.92973 -4.45241,10.75479 -10.22057,11.33471 -0.38453,0.0386 -0.77464,0.0584 -1.16995,0.0584 h -11.53832 v 5.11751 h 11.53832 c 9.09004,0 16.50855,-7.42062 16.50855,-16.51062 v -3.73982 c 0,-5.23703 -2.35827,-9.94462 -6.06785,-13.10773 z"
             style="baseline-shift:baseline;display:inline;overflow:visible;fill:#eb0102;fill-opacity:1;stroke:none;stroke-width:0.173952;stroke-opacity:1;enable-background:accumulate;stop-color:#000000"
             id="path31" /><path
             d="m 117.72459,75.826379 v 3.183269 h -0.003 v 12.65039 9.369972 l 5.11597,-7.110678 V 81.025545 h 12.14086 c 4.88237,0 7.59005,5.199763 4.79299,9.201506 l -21.90719,31.342269 v 9.07542 l 26.16895,-37.439576 c 5.03197,-7.199211 -0.27128,-17.378785 -9.05475,-17.378785 z"
             style="baseline-shift:baseline;display:inline;overflow:visible;vector-effect:none;fill:#eb0102;fill-opacity:1;stroke:none;stroke-opacity:1;enable-background:accumulate;stop-color:#000000"
             id="path40"
             sodipodi:nodetypes="cccccccsccccsc" /></g></g><g
         id="g115"
         style="fill:#eb0102;fill-opacity:1"><path
           style="fill:#eb0102;fill-opacity:1;stroke:none;stroke-width:2.80514;stroke-dasharray:none;stroke-opacity:1"
           d="m 104.4882,59.605974 c 0,0 -3.91201,-1.196626 -5.430833,-6.811563 -0.184059,-0.09205 -0.736362,1.334698 -0.41422,2.071083 -0.046,0 -3.175652,-3.037591 -1.748904,-9.941205 1.426762,-6.903614 1.610863,-6.99566 1.47278,-8.514456 -0.138153,-1.518795 0.966509,2.715421 1.058546,4.924577 0.09201,2.209156 0.184101,2.669398 1.564831,5.200721 -0.046,-0.184093 2.57734,-0.782407 0.92047,-7.870118 -1.65686,-7.087711 6.58147,-16.154457 6.58147,-16.154457 0,0 -3.68195,6.121206 -0.23012,14.773734 0,-0.09205 0.23012,-3.451808 2.25514,-4.786507 0,-0.04602 -1.84092,3.91205 0.46027,8.560484 2.30121,4.648433 -0.41422,9.895177 -0.41422,9.895177 0,0 1.24266,-0.04602 2.89953,-2.347226 0.046,-0.09205 0.36816,8.238313 -6.71955,11.413974 -0.1841,0.04602 2.62339,-2.669398 1.61085,-6.443373 0.046,-0.04602 -0.78241,0.828433 -2.07109,1.242651 -0.046,-0.184097 2.71543,-3.451808 -0.46022,-9.342891 0.046,0.04602 0.32214,1.93301 -1.42676,4.418314 0.13815,0.184094 -1.01253,-0.184097 -0.96651,-1.380726 -0.27614,-0.04602 -2.99155,4.878554 1.05854,11.091807 z"
           id="path45" /><g
           id="g50"
           style="fill:#eb0102;fill-opacity:1;stroke:none"><path
             d="m 117.87187,153.86503 v 4.95215 a 58.092663,58.092663 0 0 0 45.22102,-56.64874 58.092663,58.092663 0 0 0 -45.22102,-56.648738 v 4.952669 a 53.274681,53.274681 0 0 1 40.40271,51.696069 53.274681,53.274681 0 0 1 -40.40271,51.69659 z"
             style="fill:#eb0102;fill-opacity:1;stroke:none;stroke-width:0.199364"
             id="path50" /><path
             d="m 92.255868,45.49128 a 58.092663,58.092663 0 0 0 -45.348654,56.67716 58.092663,58.092663 0 0 0 45.348654,56.67768 v -4.94957 A 53.274681,53.274681 0 0 1 51.725525,102.16844 53.274681,53.274681 0 0 1 92.255868,50.440849 Z"
             style="fill:#eb0102;fill-opacity:1;stroke:none;stroke-width:0.199364"
             id="path49" /></g></g></g></g></svg>
